<mxfile host="app.diagrams.net" modified="2023-11-23T13:54:16.611Z" agent="Mozilla/5.0 (Windows NT 10.0; Win64; x64; rv:109.0) Gecko/20100101 Firefox/119.0" etag="-lrHazUvbr9FU-1RuJte" version="22.1.3" type="device">
  <diagram name="Pagina-1" id="hYjSK6LP4O7CKlFKW8gU">
    <mxGraphModel dx="750" dy="429" grid="1" gridSize="10" guides="1" tooltips="1" connect="1" arrows="1" fold="1" page="1" pageScale="1" pageWidth="827" pageHeight="1169" math="0" shadow="0">
      <root>
        <mxCell id="0" />
        <mxCell id="1" parent="0" />
        <mxCell id="g-x4Ft9OQaGml_CsMlnk-7" style="edgeStyle=orthogonalEdgeStyle;rounded=0;orthogonalLoop=1;jettySize=auto;html=1;exitX=0.5;exitY=0.5;exitDx=0;exitDy=0;exitPerimeter=0;entryX=0;entryY=0.5;entryDx=0;entryDy=0;" parent="1" source="g-x4Ft9OQaGml_CsMlnk-1" target="g-x4Ft9OQaGml_CsMlnk-5" edge="1">
          <mxGeometry relative="1" as="geometry" />
        </mxCell>
        <mxCell id="y1VHitTPy412EYVrS4zb-36" style="edgeStyle=orthogonalEdgeStyle;rounded=0;orthogonalLoop=1;jettySize=auto;html=1;entryX=0;entryY=0.5;entryDx=0;entryDy=0;" edge="1" parent="1" source="g-x4Ft9OQaGml_CsMlnk-1" target="y1VHitTPy412EYVrS4zb-7">
          <mxGeometry relative="1" as="geometry" />
        </mxCell>
        <mxCell id="g-x4Ft9OQaGml_CsMlnk-1" value="Unauthorized user" style="shape=umlActor;verticalLabelPosition=bottom;verticalAlign=top;html=1;outlineConnect=0;fontStyle=0" parent="1" vertex="1">
          <mxGeometry x="90" y="400" width="35" height="60" as="geometry" />
        </mxCell>
        <mxCell id="g-x4Ft9OQaGml_CsMlnk-5" value="Request librarypass" style="ellipse;whiteSpace=wrap;html=1;" parent="1" vertex="1">
          <mxGeometry x="350" y="390" width="120" height="80" as="geometry" />
        </mxCell>
        <mxCell id="g-x4Ft9OQaGml_CsMlnk-22" style="edgeStyle=orthogonalEdgeStyle;rounded=0;orthogonalLoop=1;jettySize=auto;html=1;exitX=0.5;exitY=0.5;exitDx=0;exitDy=0;exitPerimeter=0;entryX=0;entryY=0.5;entryDx=0;entryDy=0;" parent="1" source="g-x4Ft9OQaGml_CsMlnk-19" target="g-x4Ft9OQaGml_CsMlnk-20" edge="1">
          <mxGeometry relative="1" as="geometry" />
        </mxCell>
        <mxCell id="y1VHitTPy412EYVrS4zb-33" style="edgeStyle=orthogonalEdgeStyle;rounded=0;orthogonalLoop=1;jettySize=auto;html=1;entryX=0;entryY=0.5;entryDx=0;entryDy=0;" edge="1" parent="1" source="g-x4Ft9OQaGml_CsMlnk-19" target="y1VHitTPy412EYVrS4zb-19">
          <mxGeometry relative="1" as="geometry" />
        </mxCell>
        <mxCell id="y1VHitTPy412EYVrS4zb-34" style="edgeStyle=orthogonalEdgeStyle;rounded=0;orthogonalLoop=1;jettySize=auto;html=1;entryX=0;entryY=0.5;entryDx=0;entryDy=0;" edge="1" parent="1" source="g-x4Ft9OQaGml_CsMlnk-19" target="y1VHitTPy412EYVrS4zb-20">
          <mxGeometry relative="1" as="geometry" />
        </mxCell>
        <mxCell id="y1VHitTPy412EYVrS4zb-35" style="edgeStyle=orthogonalEdgeStyle;rounded=0;orthogonalLoop=1;jettySize=auto;html=1;entryX=0;entryY=0.5;entryDx=0;entryDy=0;" edge="1" parent="1" source="g-x4Ft9OQaGml_CsMlnk-19" target="y1VHitTPy412EYVrS4zb-21">
          <mxGeometry relative="1" as="geometry" />
        </mxCell>
        <mxCell id="g-x4Ft9OQaGml_CsMlnk-19" value="&lt;pre dir=&quot;ltr&quot; data-ved=&quot;2ahUKEwjyyovEmdqCAxV-gP0HHWX-Ag4Q3ewLegQIBRAP&quot; style=&quot;text-align:left&quot; id=&quot;tw-target-text&quot; data-placeholder=&quot;Vertaling&quot; class=&quot;tw-data-text tw-text-large tw-ta&quot;&gt;&lt;font face=&quot;Verdana&quot;&gt;colleague&lt;/font&gt;&lt;/pre&gt;" style="shape=umlActor;verticalLabelPosition=bottom;verticalAlign=top;html=1;outlineConnect=0;" parent="1" vertex="1">
          <mxGeometry x="90" y="1230" width="30" height="60" as="geometry" />
        </mxCell>
        <mxCell id="y1VHitTPy412EYVrS4zb-22" style="edgeStyle=orthogonalEdgeStyle;rounded=0;orthogonalLoop=1;jettySize=auto;html=1;entryX=0;entryY=0.5;entryDx=0;entryDy=0;" edge="1" parent="1" source="g-x4Ft9OQaGml_CsMlnk-20" target="y1VHitTPy412EYVrS4zb-18">
          <mxGeometry relative="1" as="geometry" />
        </mxCell>
        <mxCell id="g-x4Ft9OQaGml_CsMlnk-20" value="Manage user account" style="ellipse;whiteSpace=wrap;html=1;" parent="1" vertex="1">
          <mxGeometry x="348" y="1220" width="132" height="80" as="geometry" />
        </mxCell>
        <mxCell id="g-x4Ft9OQaGml_CsMlnk-25" value="See history of granted items." style="ellipse;whiteSpace=wrap;html=1;" parent="1" vertex="1">
          <mxGeometry x="550" y="784" width="120" height="80" as="geometry" />
        </mxCell>
        <mxCell id="y1VHitTPy412EYVrS4zb-5" style="edgeStyle=orthogonalEdgeStyle;rounded=0;orthogonalLoop=1;jettySize=auto;html=1;exitX=0.5;exitY=0.5;exitDx=0;exitDy=0;exitPerimeter=0;entryX=0;entryY=0.5;entryDx=0;entryDy=0;" edge="1" parent="1" source="y1VHitTPy412EYVrS4zb-2" target="y1VHitTPy412EYVrS4zb-3">
          <mxGeometry relative="1" as="geometry" />
        </mxCell>
        <mxCell id="y1VHitTPy412EYVrS4zb-37" style="edgeStyle=orthogonalEdgeStyle;rounded=0;orthogonalLoop=1;jettySize=auto;html=1;" edge="1" parent="1" source="y1VHitTPy412EYVrS4zb-2" target="g-x4Ft9OQaGml_CsMlnk-1">
          <mxGeometry relative="1" as="geometry" />
        </mxCell>
        <mxCell id="y1VHitTPy412EYVrS4zb-40" style="edgeStyle=orthogonalEdgeStyle;rounded=0;orthogonalLoop=1;jettySize=auto;html=1;entryX=0;entryY=0.5;entryDx=0;entryDy=0;" edge="1" parent="1" source="y1VHitTPy412EYVrS4zb-2" target="y1VHitTPy412EYVrS4zb-4">
          <mxGeometry relative="1" as="geometry" />
        </mxCell>
        <mxCell id="y1VHitTPy412EYVrS4zb-41" style="edgeStyle=orthogonalEdgeStyle;rounded=0;orthogonalLoop=1;jettySize=auto;html=1;entryX=0;entryY=0.5;entryDx=0;entryDy=0;" edge="1" parent="1" source="y1VHitTPy412EYVrS4zb-2" target="y1VHitTPy412EYVrS4zb-13">
          <mxGeometry relative="1" as="geometry" />
        </mxCell>
        <mxCell id="y1VHitTPy412EYVrS4zb-44" style="edgeStyle=orthogonalEdgeStyle;rounded=0;orthogonalLoop=1;jettySize=auto;html=1;entryX=0;entryY=0.5;entryDx=0;entryDy=0;" edge="1" parent="1" source="y1VHitTPy412EYVrS4zb-2" target="y1VHitTPy412EYVrS4zb-6">
          <mxGeometry relative="1" as="geometry" />
        </mxCell>
        <mxCell id="y1VHitTPy412EYVrS4zb-45" style="edgeStyle=orthogonalEdgeStyle;rounded=0;orthogonalLoop=1;jettySize=auto;html=1;entryX=0;entryY=0.5;entryDx=0;entryDy=0;" edge="1" parent="1" source="y1VHitTPy412EYVrS4zb-2" target="y1VHitTPy412EYVrS4zb-8">
          <mxGeometry relative="1" as="geometry" />
        </mxCell>
        <mxCell id="y1VHitTPy412EYVrS4zb-46" style="edgeStyle=orthogonalEdgeStyle;rounded=0;orthogonalLoop=1;jettySize=auto;html=1;entryX=0;entryY=0.5;entryDx=0;entryDy=0;" edge="1" parent="1" source="y1VHitTPy412EYVrS4zb-2" target="y1VHitTPy412EYVrS4zb-9">
          <mxGeometry relative="1" as="geometry" />
        </mxCell>
        <mxCell id="y1VHitTPy412EYVrS4zb-47" style="edgeStyle=orthogonalEdgeStyle;rounded=0;orthogonalLoop=1;jettySize=auto;html=1;entryX=0;entryY=0.5;entryDx=0;entryDy=0;" edge="1" parent="1" source="y1VHitTPy412EYVrS4zb-2" target="y1VHitTPy412EYVrS4zb-17">
          <mxGeometry relative="1" as="geometry" />
        </mxCell>
        <mxCell id="y1VHitTPy412EYVrS4zb-2" value="&lt;font color=&quot;#330000&quot;&gt;&lt;i&gt;Authorized&lt;/i&gt; &lt;/font&gt;user" style="shape=umlActor;verticalLabelPosition=bottom;verticalAlign=top;html=1;outlineConnect=0;" vertex="1" parent="1">
          <mxGeometry x="90" y="554" width="30" height="60" as="geometry" />
        </mxCell>
        <mxCell id="y1VHitTPy412EYVrS4zb-3" value="Grant item" style="ellipse;whiteSpace=wrap;html=1;" vertex="1" parent="1">
          <mxGeometry x="350" y="544" width="120" height="80" as="geometry" />
        </mxCell>
        <mxCell id="y1VHitTPy412EYVrS4zb-11" style="edgeStyle=orthogonalEdgeStyle;rounded=0;orthogonalLoop=1;jettySize=auto;html=1;" edge="1" parent="1" source="y1VHitTPy412EYVrS4zb-4" target="y1VHitTPy412EYVrS4zb-10">
          <mxGeometry relative="1" as="geometry" />
        </mxCell>
        <mxCell id="y1VHitTPy412EYVrS4zb-4" value="See fines" style="ellipse;whiteSpace=wrap;html=1;" vertex="1" parent="1">
          <mxGeometry x="350" y="624" width="120" height="80" as="geometry" />
        </mxCell>
        <mxCell id="y1VHitTPy412EYVrS4zb-16" style="edgeStyle=orthogonalEdgeStyle;rounded=0;orthogonalLoop=1;jettySize=auto;html=1;exitX=1;exitY=0.5;exitDx=0;exitDy=0;entryX=0;entryY=0.5;entryDx=0;entryDy=0;" edge="1" parent="1" source="y1VHitTPy412EYVrS4zb-6" target="g-x4Ft9OQaGml_CsMlnk-25">
          <mxGeometry relative="1" as="geometry" />
        </mxCell>
        <mxCell id="y1VHitTPy412EYVrS4zb-6" value="See all open granted items" style="ellipse;whiteSpace=wrap;html=1;" vertex="1" parent="1">
          <mxGeometry x="350" y="784" width="120" height="80" as="geometry" />
        </mxCell>
        <mxCell id="y1VHitTPy412EYVrS4zb-7" value="return items" style="ellipse;whiteSpace=wrap;html=1;" vertex="1" parent="1">
          <mxGeometry x="350" y="310" width="120" height="80" as="geometry" />
        </mxCell>
        <mxCell id="y1VHitTPy412EYVrS4zb-8" value="Extend granted items" style="ellipse;whiteSpace=wrap;html=1;" vertex="1" parent="1">
          <mxGeometry x="350" y="864" width="120" height="80" as="geometry" />
        </mxCell>
        <mxCell id="y1VHitTPy412EYVrS4zb-9" value="Get receipt" style="ellipse;whiteSpace=wrap;html=1;" vertex="1" parent="1">
          <mxGeometry x="350" y="944" width="120" height="80" as="geometry" />
        </mxCell>
        <mxCell id="y1VHitTPy412EYVrS4zb-10" value="Pay fines" style="ellipse;whiteSpace=wrap;html=1;" vertex="1" parent="1">
          <mxGeometry x="550" y="624" width="120" height="80" as="geometry" />
        </mxCell>
        <mxCell id="y1VHitTPy412EYVrS4zb-15" style="edgeStyle=orthogonalEdgeStyle;rounded=0;orthogonalLoop=1;jettySize=auto;html=1;" edge="1" parent="1" source="y1VHitTPy412EYVrS4zb-13" target="y1VHitTPy412EYVrS4zb-14">
          <mxGeometry relative="1" as="geometry" />
        </mxCell>
        <mxCell id="y1VHitTPy412EYVrS4zb-13" value="See all requested items" style="ellipse;whiteSpace=wrap;html=1;" vertex="1" parent="1">
          <mxGeometry x="350" y="704" width="120" height="80" as="geometry" />
        </mxCell>
        <mxCell id="y1VHitTPy412EYVrS4zb-14" value="remove requested item(s)" style="ellipse;whiteSpace=wrap;html=1;" vertex="1" parent="1">
          <mxGeometry x="550" y="704" width="120" height="80" as="geometry" />
        </mxCell>
        <mxCell id="y1VHitTPy412EYVrS4zb-17" value="Play secret game" style="ellipse;whiteSpace=wrap;html=1;" vertex="1" parent="1">
          <mxGeometry x="350" y="1024" width="120" height="80" as="geometry" />
        </mxCell>
        <mxCell id="y1VHitTPy412EYVrS4zb-18" value="Manage librarypass" style="ellipse;whiteSpace=wrap;html=1;" vertex="1" parent="1">
          <mxGeometry x="570" y="1220" width="120" height="80" as="geometry" />
        </mxCell>
        <mxCell id="y1VHitTPy412EYVrS4zb-19" value="Manage requested items" style="ellipse;whiteSpace=wrap;html=1;" vertex="1" parent="1">
          <mxGeometry x="348" y="1310" width="120" height="80" as="geometry" />
        </mxCell>
        <mxCell id="y1VHitTPy412EYVrS4zb-20" value="Manage items" style="ellipse;whiteSpace=wrap;html=1;" vertex="1" parent="1">
          <mxGeometry x="348" y="1390" width="120" height="80" as="geometry" />
        </mxCell>
        <mxCell id="y1VHitTPy412EYVrS4zb-21" value="Manage grants" style="ellipse;whiteSpace=wrap;html=1;" vertex="1" parent="1">
          <mxGeometry x="348" y="1470" width="120" height="80" as="geometry" />
        </mxCell>
        <mxCell id="y1VHitTPy412EYVrS4zb-26" style="edgeStyle=orthogonalEdgeStyle;rounded=0;orthogonalLoop=1;jettySize=auto;html=1;exitX=0.5;exitY=0.5;exitDx=0;exitDy=0;exitPerimeter=0;" edge="1" parent="1" source="y1VHitTPy412EYVrS4zb-23" target="g-x4Ft9OQaGml_CsMlnk-19">
          <mxGeometry relative="1" as="geometry" />
        </mxCell>
        <mxCell id="y1VHitTPy412EYVrS4zb-30" style="edgeStyle=orthogonalEdgeStyle;rounded=0;orthogonalLoop=1;jettySize=auto;html=1;entryX=0;entryY=0.5;entryDx=0;entryDy=0;" edge="1" parent="1" source="y1VHitTPy412EYVrS4zb-23" target="y1VHitTPy412EYVrS4zb-25">
          <mxGeometry relative="1" as="geometry" />
        </mxCell>
        <mxCell id="y1VHitTPy412EYVrS4zb-31" style="edgeStyle=orthogonalEdgeStyle;rounded=0;orthogonalLoop=1;jettySize=auto;html=1;entryX=0;entryY=0.5;entryDx=0;entryDy=0;" edge="1" parent="1" source="y1VHitTPy412EYVrS4zb-23" target="y1VHitTPy412EYVrS4zb-28">
          <mxGeometry relative="1" as="geometry" />
        </mxCell>
        <mxCell id="y1VHitTPy412EYVrS4zb-32" style="edgeStyle=orthogonalEdgeStyle;rounded=0;orthogonalLoop=1;jettySize=auto;html=1;entryX=0;entryY=0.5;entryDx=0;entryDy=0;" edge="1" parent="1" source="y1VHitTPy412EYVrS4zb-23" target="y1VHitTPy412EYVrS4zb-29">
          <mxGeometry relative="1" as="geometry" />
        </mxCell>
        <mxCell id="y1VHitTPy412EYVrS4zb-23" value="SuperAdmin" style="shape=umlActor;verticalLabelPosition=bottom;verticalAlign=top;html=1;outlineConnect=0;" vertex="1" parent="1">
          <mxGeometry x="70" y="1710" width="30" height="60" as="geometry" />
        </mxCell>
        <mxCell id="y1VHitTPy412EYVrS4zb-25" value="Manage colleages" style="ellipse;whiteSpace=wrap;html=1;" vertex="1" parent="1">
          <mxGeometry x="348" y="1700" width="120" height="80" as="geometry" />
        </mxCell>
        <mxCell id="y1VHitTPy412EYVrS4zb-27" value="extends" style="text;html=1;align=center;verticalAlign=middle;resizable=0;points=[];autosize=1;strokeColor=none;fillColor=none;rotation=270;" vertex="1" parent="1">
          <mxGeometry x="70" y="1518" width="60" height="30" as="geometry" />
        </mxCell>
        <mxCell id="y1VHitTPy412EYVrS4zb-28" value="Manage payment transactions" style="ellipse;whiteSpace=wrap;html=1;" vertex="1" parent="1">
          <mxGeometry x="348" y="1780" width="120" height="80" as="geometry" />
        </mxCell>
        <mxCell id="y1VHitTPy412EYVrS4zb-29" value="Manage fines" style="ellipse;whiteSpace=wrap;html=1;" vertex="1" parent="1">
          <mxGeometry x="350" y="1860" width="120" height="80" as="geometry" />
        </mxCell>
        <mxCell id="y1VHitTPy412EYVrS4zb-38" value="Extends" style="text;html=1;align=center;verticalAlign=middle;resizable=0;points=[];autosize=1;strokeColor=none;fillColor=none;rotation=270;" vertex="1" parent="1">
          <mxGeometry x="55" y="508" width="70" height="30" as="geometry" />
        </mxCell>
      </root>
    </mxGraphModel>
  </diagram>
</mxfile>
